Coordinates
version=1
nRows=15
nColumns=46
inDegrees=yes

Units are S.I. units (second, meters, Newtons, ...)
Angles are in degrees.

endheader
time	pelvis_tilt	pelvis_list	pelvis_rotation	pelvis_tx	pelvis_ty	pelvis_tz	bb_angle	bb_tx	bb_ty	bb_tz	hip_flexion_r	hip_adduction_r	hip_rotation_r	knee_angle_r	knee_angle_r_beta	ankle_angle_r	subtalar_angle_r	mtp_angle_r	crank_angle_r	hip_flexion_l	hip_adduction_l	hip_rotation_l	knee_angle_l	knee_angle_l_beta	ankle_angle_l	subtalar_angle_l	mtp_angle_l	crank_angle_l	lumbar_extension	lumbar_bending	lumbar_rotation	arm_flex_r	arm_add_r	arm_rot_r	elbow_flex_r	pro_sup_r	wrist_flex_r	wrist_dev_r	arm_flex_l	arm_add_l	arm_rot_l	elbow_flex_l	pro_sup_l	wrist_flex_l	wrist_dev_l
      7.50000000	    -23.98793508	    -14.60001470	      0.36839097	      0.43376890	      1.15116723	     -0.20460829	      0.00000000	      0.50000000	      0.00000000	      0.25000000	     61.50639825	     11.78838006	     -5.44559813	     99.68169032	      1.73977370	     -8.08868603	    -14.37751573	      0.00000000	      0.00000000	     33.33001984	    -18.60846184	      8.03681962	     21.74282410	      0.37948387	    -12.59846937	     -3.47533906	      0.00000000	      0.00000000	    -51.08256602	      6.05087988	     -9.25047691	     73.23448512	      8.47538193	     74.27014300	     17.52842529	     59.49194942	      0.00000000	      0.00000000	     31.31571913	    -44.22466562	     12.79402029	     85.44361529	     52.78570066	      0.00000000	      0.00000000
      7.50500000	    -24.36010288	    -14.88967873	     -1.23591777	      0.43336357	      1.14943113	     -0.20517154	      0.00000000	      0.50000000	      0.00000000	      0.25000000	     63.29398151	     12.54177920	     -5.43502261	    101.13491351	      1.76513723	     -7.27308126	    -14.24274040	      0.00000000	      0.00000000	     32.01291111	    -19.77840176	      6.44530330	     20.52820965	      0.35828485	    -13.23682330	     -2.66829454	      0.00000000	      0.00000000	    -50.65031595	      6.06623653	     -8.28057867	     74.15273278	      8.43901478	     78.44432614	     16.98520328	     61.20813522	      0.00000000	      0.00000000	     30.19994254	    -43.34264198	     11.29413747	     84.88526970	     52.66126245	      0.00000000	      0.00000000
      7.51000000	    -24.66232491	    -15.03377669	     -2.79478775	      0.43296306	      1.14814951	     -0.20584376	      0.00000000	      0.50000000	      0.00000000	      0.25000000	     64.96295310	     13.27071176	     -5.25992734	    102.41480818	      1.78747561	     -6.48314472	    -13.79941965	      0.00000000	      0.00000000	     30.54660533	    -20.73910524	      4.73962476	     19.30186671	      0.33688113	    -13.95590236	     -1.94278276	      0.00000000	      0.00000000	    -50.41041004	      6.01971435	     -7.40191876	     74.35252188	      8.63295560	     78.67197293	     17.15884505	     61.39248753	      0.00000000	      0.00000000	     29.55509525	    -43.40669345	     11.24377389	     84.39685709	     52.60250918	      0.00000000	      0.00000000
      7.51500000	    -24.86675330	    -15.07974681	     -4.34065009	      0.43294370	      1.14726236	     -0.20663299	      0.00000000	      0.50000000	      0.00000000	      0.25000000	     66.44080632	     13.85786297	     -5.08969278	    103.52873299	      1.80691726	     -5.67307759	    -13.22530480	      0.00000000	      0.00000000	     28.91363829	    -21.58678684	      2.75833399	     18.15827167	      0.31692163	    -14.47281326	     -0.78681798	      0.00000000	      0.00000000	    -50.25719550	      5.82824580	     -6.47590820	     74.45492156	      8.69864969	     79.14320607	     17.60495112	     61.73395915	      0.00000000	      0.00000000	     29.09462187	    -43.02752283	     11.00059126	     83.76325206	     52.50290539	      0.00000000	      0.00000000
      7.52000000	    -24.99889154	    -15.13321990	     -5.69123885	      0.43296699	      1.14673913	     -0.20812869	      0.00000000	      0.50000000	      0.00000000	      0.25000000	     67.75629912	     14.23351835	     -4.98848761	    104.42932078	      1.82263548	     -4.85367367	    -12.53693551	      0.00000000	      0.00000000	     27.26287647	    -22.25486912	      0.91880734	     17.04503572	      0.29749199	    -15.03620742	      0.38406169	      0.00000000	      0.00000000	    -50.26020728	      5.84606434	     -5.57338027	     74.71194874	      8.52553718	     79.58035559	     18.04463868	     62.08967601	      0.00000000	      0.00000000	     28.78857579	    -42.47905440	     10.76496694	     83.04551382	     52.39046392	      0.00000000	      0.00000000
      7.52500000	    -25.14895231	    -15.12740009	     -6.94227496	      0.43299164	      1.14646983	     -0.20972314	      0.00000000	      0.50000000	      0.00000000	      0.25000000	     69.02461505	     14.55482572	     -4.81973402	    105.14052732	      1.83504838	     -4.08638635	    -11.77212768	      0.00000000	      0.00000000	     25.67111784	    -22.75906499	     -0.77949573	     15.97585149	      0.27883121	    -15.70206373	      1.58455186	      0.00000000	      0.00000000	    -50.30625778	      5.89854748	     -4.75101344	     74.98552555	      8.34501687	     79.89202034	     18.52767566	     62.40537486	      0.00000000	      0.00000000	     28.53084442	    -41.94162264	     10.74438212	     82.35657748	     52.30136497	      0.00000000	      0.00000000
      7.53000000	    -25.24128204	    -15.11425564	     -8.03370328	      0.43314446	      1.14654260	     -0.21143305	      0.00000000	      0.50000000	      0.00000000	      0.25000000	     70.13510435	     14.70600466	     -4.73946280	    105.66878135	      1.84426815	     -3.23626935	    -10.88139664	      0.00000000	      0.00000000	     24.17121835	    -23.16140565	     -2.53384442	     15.08138648	      0.26321985	    -16.41200032	      2.82500083	      0.00000000	      0.00000000	    -50.33620682	      5.91469724	     -3.80588456	     75.14353049	      7.75362642	     80.10973685	     19.22032524	     62.77872780	      0.00000000	      0.00000000	     28.83070034	    -41.07109208	     10.89195673	     81.37250263	     52.17897902	      0.00000000	      0.00000000
      7.53500000	    -25.24210976	    -14.90511974	     -8.98638360	      0.43347565	      1.14699502	     -0.21356540	      0.00000000	      0.50000000	      0.00000000	      0.25000000	     71.06104604	     14.57308712	     -4.51891375	    106.03827005	      1.85071695	     -2.41472848	     -9.85803587	      0.00000000	      0.00000000	     22.79347092	    -23.27938908	     -4.55822093	     14.51754360	      0.25337894	    -17.04103018	      4.19616649	      0.00000000	      0.00000000	    -50.46709770	      5.91295871	     -3.04705214	     75.27170692	      7.12917403	     80.09388072	     20.06453419	     63.08696122	      0.00000000	      0.00000000	     29.25263754	    -40.29928888	     11.21399565	     80.25841869	     52.05378381	      0.00000000	      0.00000000
      7.54000000	    -25.48684648	    -14.81361691	     -9.73234425	      0.43350677	      1.14751856	     -0.21584740	      0.00000000	      0.50000000	      0.00000000	      0.25000000	     72.13180006	     14.34084966	     -4.52057561	    106.11078128	      1.85198251	     -1.77194001	     -9.19248430	      0.00000000	      0.00000000	     21.82764977	    -23.33573530	     -5.65177464	     13.91763062	      0.24290848	    -17.99193171	      4.97817634	      0.00000000	      0.00000000	    -50.49305078	      6.21033053	     -2.50786562	     75.36966104	      6.96643053	     80.03050964	     20.59330089	     63.19367278	      0.00000000	      0.00000000	     29.19571526	    -39.98167121	     11.44021503	     79.66770490	     51.99248134	      0.00000000	      0.00000000
      7.54500000	    -25.41600004	    -14.61402150	    -10.52672516	      0.43390129	      1.14868605	     -0.21792941	      0.00000000	      0.50000000	      0.00000000	      0.25000000	     72.72733954	     14.25781208	     -4.23841361	    106.03891876	      1.85072827	     -0.68195098	     -8.00930340	      0.00000000	      0.00000000	     20.48419330	    -23.27127682	     -7.13199868	     13.38985887	      0.23369712	    -18.81369885	      5.83627776	      0.00000000	      0.00000000	    -50.66632379	      6.12272267	     -0.79716774	     75.27532721	      4.21435865	     78.99868025	     23.95553299	     63.69725195	      0.00000000	      0.00000000	     31.74799920	    -37.73465394	     13.18014032	     76.79675703	     51.74957706	      0.00000000	      0.00000000
      7.55000000	    -25.48661449	    -14.31156222	    -11.24401962	      0.43429742	      1.14999510	     -0.22000387	      0.00000000	      0.50000000	      0.00000000	      0.25000000	     73.33706439	     14.05174567	     -3.92045796	    105.75059397	      1.84569605	      0.26239614	     -6.95913229	      0.00000000	      0.00000000	     19.63594677	    -23.13185097	     -8.86648285	     13.33525989	      0.23274419	    -19.38856999	      6.17028495	      0.00000000	      0.00000000	    -50.82845489	      6.11224257	     -0.37744650	     75.27391764	      3.67735639	     78.57725615	     24.78326488	     63.73949771	      0.00000000	      0.00000000	     32.01397123	    -37.53684089	     13.79604618	     76.04774859	     51.71469475	      0.00000000	      0.00000000
      7.55500000	    -25.43230086	    -13.91645101	    -11.72878539	      0.43471752	      1.15178197	     -0.22237288	      0.00000000	      0.50000000	      0.00000000	      0.25000000	     73.67306996	     13.65356310	     -3.50224987	    105.30661010	      1.83794707	      1.52509269	     -5.70376147	      0.00000000	      0.00000000	     18.89139638	    -22.75591901	    -10.25856698	     13.45771760	      0.23488148	    -20.22441210	      6.63691162	      0.00000000	      0.00000000	    -51.12893484	      6.09256578	      0.19937028	     75.38046939	      2.34059363	     77.34895842	     26.11045202	     63.62190642	      0.00000000	      0.00000000	     32.82417452	    -36.71569497	     14.13419114	     74.91018643	     51.59295904	      0.00000000	      0.00000000
      7.56000000	    -25.55797862	    -13.57614452	    -11.91438521	      0.43469782	      1.15369935	     -0.22471705	      0.00000000	      0.50000000	      0.00000000	      0.25000000	     74.08477599	     13.06452278	     -3.37547348	    104.61590278	      1.82589195	      2.40637263	     -5.43700814	      0.00000000	      0.00000000	     18.73784811	    -22.35437579	    -10.83172409	     13.90479600	      0.24268447	    -21.53457685	      6.91114867	      0.00000000	      0.00000000	    -51.36203947	      6.38564365	      0.24826740	     75.52726758	      2.14770344	     77.08164256	     26.57394875	     63.61104318	      0.00000000	      0.00000000	     32.99830612	    -36.54768437	     14.25171263	     74.63699454	     51.56481417	      0.00000000	      0.00000000
      7.56500000	    -25.36825280	    -13.06456967	    -12.23793243	      0.43512032	      1.15643129	     -0.22717114	      0.00000000	      0.50000000	      0.00000000	      0.25000000	     73.95270969	     12.61330091	     -2.73789808	    103.73894191	      1.81058610	      4.06727530	     -3.74134769	      0.00000000	      0.00000000	     18.19935850	    -21.75975546	    -11.79193932	     14.43088216	      0.25186641	    -22.38186618	      6.65936089	      0.00000000	      0.00000000	    -51.69251425	      5.98109138	      2.65247473	     73.81768260	     -3.02375638	     71.70955050	     33.51334498	     62.75615354	      0.00000000	      0.00000000	     38.02146160	    -33.67430332	     19.04667832	     69.71777523	     51.46598539	      0.00000000	      0.00000000
      7.57000000	    -25.45690926	    -12.59912895	    -12.58698954	      0.43551212	      1.15899397	     -0.22922771	      0.00000000	      0.50000000	      0.00000000	      0.25000000	     73.94006532	     12.28182796	     -2.24235574	    102.65077644	      1.79159403	      5.66714616	     -2.67591438	      0.00000000	      0.00000000	     18.22071848	    -21.32485863	    -12.55687578	     15.39485820	      0.26869096	    -23.07137755	      6.11701445	      0.00000000	      0.00000000	    -51.98191450	      5.62268904	      3.70464708	     73.16231669	     -5.67489315	     69.66856670	     37.15911311	     62.47818396	      0.00000000	      0.00000000	     39.63473742	    -31.99550173	     19.92905758	     68.29898652	     51.46215720	      0.00000000	      0.00000000
